<?xml version="1.0" encoding="UTF-8"?>
<svg width="512px" height="466px" viewBox="0 0 512 466" version="1.1" xmlns="http://www.w3.org/2000/svg" xmlns:xlink="http://www.w3.org/1999/xlink">
    <!-- Generator: Sketch 55.2 (78181) - https://sketchapp.com -->
    <title>game-controller</title>
    <desc>Created with Sketch.</desc>
    <defs>
        <linearGradient x1="50%" y1="0%" x2="50%" y2="100%" id="linearGradient-1">
            <stop stop-color="#6B4DC4" offset="0%"></stop>
            <stop stop-color="#FB5050" offset="100%"></stop>
        </linearGradient>
        <linearGradient x1="50%" y1="0%" x2="50%" y2="100%" id="linearGradient-2">
            <stop stop-color="#6B4DC4" offset="0%"></stop>
            <stop stop-color="#FB5050" offset="100%"></stop>
        </linearGradient>
        <linearGradient x1="50%" y1="0%" x2="50%" y2="100%" id="linearGradient-3">
            <stop stop-color="#6B4DC4" offset="0%"></stop>
            <stop stop-color="#FB5050" offset="100%"></stop>
        </linearGradient>
        <linearGradient x1="50%" y1="0%" x2="50%" y2="100%" id="linearGradient-4">
            <stop stop-color="#6B4DC4" offset="0%"></stop>
            <stop stop-color="#FB5050" offset="100%"></stop>
        </linearGradient>
        <linearGradient x1="50%" y1="0%" x2="50%" y2="100%" id="linearGradient-5">
            <stop stop-color="#6B4DC4" offset="0%"></stop>
            <stop stop-color="#FB5050" offset="100%"></stop>
        </linearGradient>
    </defs>
    <g id="Page-1" stroke="none" stroke-width="1" fill="none" fill-rule="evenodd">
        <g id="STYLE_GUIDE" transform="translate(-799.000000, -669.000000)" fill-rule="nonzero">
            <g id="game-controller" transform="translate(799.000000, 669.000000)">
                <path d="M328.42,83.38 C324.3,83.38 320.518,80.75 319.07,76.898 C317.66,73.148 318.666,68.827 321.584,66.08 C324.753,63.097 329.653,62.546 333.417,64.717 C337.03,66.801 339.016,71.063 338.259,75.169 C337.396,79.855 333.196,83.38 328.42,83.38 Z" id="Path" fill="url(#linearGradient-1)"></path>
                <path d="M216.49,20.117 L394.518,20.117 C406.469,20.117 416.192,29.82 416.192,41.747 C416.192,53.674 406.469,63.377 394.518,63.377 L373.185,63.377 C367.663,63.377 363.185,67.855 363.185,73.377 C363.185,78.899 367.663,83.377 373.185,83.377 L394.518,83.377 C417.497,83.377 436.192,64.702 436.192,41.747 C436.192,18.792 417.498,0.117 394.518,0.117 L216.49,0.117 C210.968,0.117 206.49,4.594 206.49,10.117 C206.49,15.64 210.968,20.117 216.49,20.117 Z" id="Path" fill="url(#linearGradient-2)"></path>
                <path d="M376.591,194.161 L266,194.161 L266,150.788 C266,145.265 261.522,140.788 256,140.788 L107.085,140.788 C91.227,140.788 78.325,127.911 78.325,112.083 C78.325,96.255 91.226,83.377 107.085,83.377 L284.021,83.377 C289.543,83.377 294.021,78.899 294.021,73.377 C294.021,67.855 289.543,63.377 284.021,63.377 L107.085,63.377 C80.199,63.377 58.325,85.227 58.325,112.083 C58.325,138.94 80.199,160.788 107.085,160.788 L246,160.788 L246,194.161 L135.409,194.161 C60.744,194.161 0,255.107 0,330.022 C0,404.936 60.744,465.883 135.409,465.883 C180.241,465.883 221.484,444.071 246.83,407.251 L265.17,407.251 C290.516,444.071 331.759,465.883 376.591,465.883 C451.256,465.883 512,404.936 512,330.022 C512,255.107 451.256,194.161 376.591,194.161 Z M324.575,214.161 L324.575,249.555 L187.425,249.555 L187.425,214.161 L324.575,214.161 Z M376.591,445.883 C336.805,445.883 300.326,425.708 279.011,391.916 C277.179,389.012 273.987,387.251 270.553,387.251 L241.448,387.251 C238.014,387.251 234.822,389.012 232.99,391.916 C211.674,425.708 175.196,445.883 135.41,445.883 C71.772,445.883 20,393.907 20,330.022 C20,266.136 71.772,214.162 135.409,214.162 L167.425,214.162 L167.425,259.556 C167.425,265.078 171.902,269.556 177.425,269.556 L334.575,269.556 C340.097,269.556 344.575,265.078 344.575,259.556 L344.575,214.162 L376.591,214.162 C440.228,214.162 492,266.137 492,330.022 C492,393.907 440.228,445.883 376.591,445.883 Z" id="Shape" fill="url(#linearGradient-3)"></path>
                <path d="M337.04,399.672 C328.005,399.672 318.97,396.232 312.092,389.355 C298.337,375.598 298.337,353.215 312.092,339.46 C325.848,325.702 348.232,325.703 361.988,339.459 C375.744,353.216 375.744,375.599 361.989,389.354 L361.989,389.355 C355.11,396.232 346.075,399.672 337.04,399.672 Z M337.04,349.132 C333.126,349.132 329.214,350.621 326.233,353.601 C320.276,359.559 320.276,369.254 326.234,375.213 C332.191,381.17 341.886,381.169 347.845,375.212 C353.803,369.254 353.803,359.559 347.845,353.6 C344.867,350.622 340.953,349.132 337.04,349.132 L337.04,349.132 Z" id="Shape" fill="url(#linearGradient-4)"></path>
                <path d="M397.257,337.753 C387.833,337.753 378.973,334.082 372.31,327.418 C365.647,320.755 361.976,311.895 361.976,302.471 C361.976,293.047 365.647,284.187 372.311,277.524 C378.973,270.861 387.834,267.191 397.257,267.191 C406.681,267.191 415.541,270.86 422.205,277.524 C428.868,284.187 432.538,293.047 432.538,302.471 C432.538,311.895 428.869,320.755 422.205,327.419 C415.541,334.082 406.681,337.753 397.257,337.753 Z M397.257,287.19 C393.175,287.19 389.338,288.779 386.452,291.665 C383.565,294.552 381.975,298.389 381.975,302.471 C381.975,306.553 383.565,310.391 386.452,313.277 C389.338,316.164 393.175,317.754 397.257,317.754 C401.339,317.754 405.177,316.164 408.063,313.277 C410.95,310.391 412.539,306.553 412.539,302.471 C412.539,298.389 410.95,294.552 408.064,291.666 C405.177,288.779 401.339,287.19 397.257,287.19 L397.257,287.19 Z" id="Shape" fill="url(#linearGradient-5)"></path>
                <path d="M159.259,396.624 L116.628,396.624 C111.106,396.624 106.628,392.147 106.628,386.624 L106.628,369.458 L89.462,369.458 C83.94,369.458 79.462,364.98 79.462,359.458 L79.462,316.827 C79.462,311.305 83.94,306.827 89.462,306.827 L106.628,306.827 L106.628,289.661 C106.628,284.139 111.106,279.661 116.628,279.661 L159.259,279.661 C164.781,279.661 169.259,284.139 169.259,289.661 L169.259,306.827 L186.425,306.827 C191.947,306.827 196.425,311.305 196.425,316.827 L196.425,359.458 C196.425,364.98 191.947,369.458 186.425,369.458 L169.259,369.458 L169.259,386.624 C169.259,392.147 164.781,396.624 159.259,396.624 L159.259,396.624 Z M126.628,376.624 L149.259,376.624 L149.259,359.458 C149.259,353.935 153.736,349.458 159.259,349.458 L176.425,349.458 L176.425,326.827 L159.259,326.827 C153.736,326.827 149.259,322.35 149.259,316.827 L149.259,299.661 L126.628,299.661 L126.628,316.827 C126.628,322.35 122.15,326.827 116.628,326.827 L99.462,326.827 L99.462,349.458 L116.628,349.458 C122.15,349.458 126.628,353.935 126.628,359.458 L126.628,376.624 Z" id="Shape" fill="url(#linearGradient-5)"></path>
            </g>
        </g>
    </g>
</svg>